<svg width="110" height="45" viewBox="0 0 110 45" fill="none" xmlns="http://www.w3.org/2000/svg">
<path d="M41.0789 6.82525L31.7134 14.2934V2.76821L34.9025 0.214904C35.2961 -0.0979518 35.8612 -0.0676754 36.2145 0.295641L41.1697 5.37198C41.5734 5.78576 41.533 6.46193 41.0789 6.81516V6.82525Z" fill="black"/>
<path d="M20.3798 11.4778V22.5993L10.3583 14.3641C9.87389 13.9705 9.88398 13.2338 10.3684 12.8503L15.9594 8.39968C16.3228 8.1171 16.8375 8.1171 17.1907 8.39968L20.0165 10.7209C20.2385 10.9025 20.3697 11.1851 20.3697 11.4778H20.3798Z" fill="black"/>
<path d="M30.9569 3.38379V14.8989L21.0767 22.7708V11.2859L30.9569 3.38379Z" fill="black"/>
<path d="M30.9569 15.8271V32.3379L21.0767 27.6349V23.699L30.9569 15.8271Z" fill="black"/>
<path d="M51.5221 6.94406L55.6854 20.0309H55.8452L60.0168 6.94406H64.0539L58.116 24.1689H53.4229L47.4766 6.94406H51.5221ZM65.5915 6.94406H69.6706L73.5984 14.3622H73.7666L77.6943 6.94406H81.7735L75.4908 18.0797V24.1689H71.8742V18.0797L65.5915 6.94406ZM98.3934 12.9745H94.7095C94.6423 12.4979 94.5049 12.0745 94.2974 11.7045C94.09 11.3288 93.8236 11.0092 93.4984 10.7456C93.1732 10.4821 92.7975 10.2803 92.3714 10.1401C91.9509 9.99991 91.4939 9.92982 91.0005 9.92982C90.109 9.92982 89.3324 10.1513 88.6707 10.5943C88.0091 11.0316 87.4961 11.6708 87.1316 12.5119C86.7672 13.3473 86.5849 14.3622 86.5849 15.5565C86.5849 16.7844 86.7672 17.8161 87.1316 18.6516C87.5017 19.4871 88.0175 20.1178 88.6792 20.544C89.3408 20.9701 90.1062 21.1832 90.9752 21.1832C91.4631 21.1832 91.9144 21.1187 92.3294 20.9897C92.7499 20.8608 93.1228 20.6729 93.448 20.4262C93.7732 20.1739 94.0423 19.8683 94.2554 19.5095C94.4741 19.1506 94.6254 18.7413 94.7095 18.2815L98.3934 18.2984C98.2981 19.089 98.0598 19.8515 97.6785 20.586C97.3028 21.315 96.7954 21.9682 96.1562 22.5457C95.5226 23.1176 94.7656 23.5718 93.8853 23.9082C93.0106 24.239 92.021 24.4044 90.9164 24.4044C89.38 24.4044 88.0063 24.0568 86.7952 23.3615C85.5897 22.6663 84.6365 21.6598 83.9356 20.3421C83.2403 19.0245 82.8927 17.4293 82.8927 15.5565C82.8927 13.6781 83.2459 12.0801 83.9524 10.7625C84.6589 9.44481 85.6177 8.44115 86.8288 7.75148C88.04 7.0562 89.4025 6.70857 90.9164 6.70857C91.9144 6.70857 92.8396 6.84874 93.6919 7.1291C94.5497 7.40945 95.3095 7.81876 95.9711 8.35704C96.6328 8.88971 97.171 9.54293 97.586 10.3167C98.0065 11.0905 98.2756 11.9764 98.3934 12.9745Z" fill="black"/>
<path d="M3.41336 35.0654L5.43751 40.9887H5.51918L7.54333 35.0654H8.72941L6.11222 42.3381H4.84447L2.22728 35.0654H3.41336ZM11.6984 42.4482C11.161 42.4482 10.6982 42.3334 10.3099 42.1038C9.92402 41.8718 9.62573 41.5462 9.41503 41.1272C9.20669 40.7058 9.10253 40.2122 9.10253 39.6464C9.10253 39.0877 9.20669 38.5952 9.41503 38.1691C9.62573 37.743 9.91929 37.4103 10.2957 37.1712C10.6745 36.9321 11.1172 36.8126 11.6238 36.8126C11.9316 36.8126 12.2299 36.8635 12.5187 36.9653C12.8075 37.0671 13.0668 37.2269 13.2964 37.4447C13.5261 37.6625 13.7072 37.9454 13.8397 38.2934C13.9723 38.639 14.0386 39.0593 14.0386 39.554V39.9305H9.70267V39.135H12.9981C12.9981 38.8557 12.9413 38.6083 12.8277 38.3928C12.714 38.175 12.5542 38.0034 12.3483 37.8779C12.1447 37.7524 11.9056 37.6897 11.6309 37.6897C11.3326 37.6897 11.0722 37.7631 10.8497 37.9099C10.6295 38.0543 10.4591 38.2437 10.3383 38.478C10.22 38.7101 10.1608 38.9622 10.1608 39.2344V39.8559C10.1608 40.2205 10.2247 40.5306 10.3525 40.7863C10.4827 41.042 10.6638 41.2373 10.8959 41.3722C11.1279 41.5048 11.3989 41.5711 11.7091 41.5711C11.9103 41.5711 12.0938 41.5427 12.2595 41.4859C12.4252 41.4267 12.5684 41.3391 12.6892 41.2231C12.8099 41.1071 12.9022 40.9638 12.9662 40.7934L13.9711 40.9745C13.8906 41.2704 13.7462 41.5297 13.5379 41.7522C13.3319 41.9724 13.0727 42.144 12.7602 42.2671C12.4501 42.3879 12.0961 42.4482 11.6984 42.4482ZM15.4167 42.3381V36.8836H16.443V37.7501H16.4998C16.5992 37.4565 16.7744 37.2257 17.0254 37.0576C17.2787 36.8871 17.5651 36.8019 17.8847 36.8019C17.951 36.8019 18.0291 36.8043 18.1191 36.809C18.2114 36.8137 18.2836 36.8197 18.3357 36.8268V37.8424C18.2931 37.8306 18.2174 37.8175 18.1085 37.8033C17.9996 37.7868 17.8907 37.7785 17.7818 37.7785C17.5308 37.7785 17.3071 37.8317 17.1106 37.9383C16.9165 38.0424 16.7626 38.188 16.6489 38.3751C16.5353 38.5597 16.4785 38.7704 16.4785 39.0072V42.3381H15.4167ZM19.4546 42.3381V36.8836H20.5164V42.3381H19.4546ZM19.9908 36.042C19.8061 36.042 19.6475 35.9804 19.515 35.8573C19.3847 35.7318 19.3196 35.5827 19.3196 35.4099C19.3196 35.2347 19.3847 35.0855 19.515 34.9624C19.6475 34.837 19.8061 34.7742 19.9908 34.7742C20.1755 34.7742 20.3329 34.837 20.4631 34.9624C20.5957 35.0855 20.662 35.2347 20.662 35.4099C20.662 35.5827 20.5957 35.7318 20.4631 35.8573C20.3329 35.9804 20.1755 36.042 19.9908 36.042ZM24.7407 36.8836V37.7359H21.6583V36.8836H24.7407ZM22.5035 42.3381V36.2515C22.5035 35.9106 22.5781 35.6277 22.7272 35.4028C22.8764 35.1755 23.074 35.0062 23.3202 34.895C23.5665 34.7813 23.834 34.7245 24.1228 34.7245C24.3359 34.7245 24.5182 34.7423 24.6697 34.7778C24.8212 34.8109 24.9336 34.8417 25.007 34.8701L24.7585 35.7295C24.7087 35.7153 24.6448 35.6987 24.5667 35.6798C24.4886 35.6584 24.3939 35.6478 24.2826 35.6478C24.0246 35.6478 23.8399 35.7117 23.7286 35.8396C23.6197 35.9674 23.5653 36.1521 23.5653 36.3935V42.3381H22.5035ZM26.7074 44.3836C26.5488 44.3836 26.4044 44.3706 26.2742 44.3445C26.1439 44.3209 26.0469 44.2948 25.983 44.2664L26.2386 43.3964C26.4328 43.4485 26.6056 43.4709 26.7571 43.4638C26.9086 43.4567 27.0424 43.3999 27.1584 43.2934C27.2768 43.1869 27.3809 43.0129 27.4709 42.7714L27.6023 42.4092L25.6065 36.8836H26.7429L28.1243 41.1165H28.1811L29.5625 36.8836H30.7024L28.4546 43.0661C28.3504 43.3502 28.2178 43.5905 28.0568 43.787C27.8958 43.9859 27.7041 44.135 27.4815 44.2344C27.259 44.3339 27.001 44.3836 26.7074 44.3836ZM34.2709 35.0654H35.5174L37.4172 38.3715H37.4954L39.3952 35.0654H40.6417L38.0032 39.483V42.3381H36.9094V39.483L34.2709 35.0654ZM43.1916 42.4482C42.6803 42.4482 42.234 42.331 41.8528 42.0967C41.4717 41.8623 41.1758 41.5344 40.9651 41.113C40.7544 40.6916 40.649 40.1992 40.649 39.6357C40.649 39.0699 40.7544 38.5751 40.9651 38.1513C41.1758 37.7276 41.4717 37.3985 41.8528 37.1641C42.234 36.9298 42.6803 36.8126 43.1916 36.8126C43.703 36.8126 44.1492 36.9298 44.5304 37.1641C44.9116 37.3985 45.2075 37.7276 45.4182 38.1513C45.6289 38.5751 45.7342 39.0699 45.7342 39.6357C45.7342 40.1992 45.6289 40.6916 45.4182 41.113C45.2075 41.5344 44.9116 41.8623 44.5304 42.0967C44.1492 42.331 43.703 42.4482 43.1916 42.4482ZM43.1952 41.5569C43.5266 41.5569 43.8012 41.4693 44.019 41.2941C44.2368 41.1189 44.3978 40.8857 44.502 40.5945C44.6085 40.3033 44.6618 39.9825 44.6618 39.6322C44.6618 39.2842 44.6085 38.9646 44.502 38.6734C44.3978 38.3798 44.2368 38.1442 44.019 37.9667C43.8012 37.7891 43.5266 37.7004 43.1952 37.7004C42.8614 37.7004 42.5844 37.7891 42.3642 37.9667C42.1464 38.1442 41.9842 38.3798 41.8777 38.6734C41.7735 38.9646 41.7215 39.2842 41.7215 39.6322C41.7215 39.9825 41.7735 40.3033 41.8777 40.5945C41.9842 40.8857 42.1464 41.1189 42.3642 41.2941C42.5844 41.4693 42.8614 41.5569 43.1952 41.5569ZM50.5747 40.0761V36.8836H51.64V42.3381H50.596V41.3935H50.5392C50.4137 41.6847 50.2125 41.9274 49.9355 42.1215C49.6609 42.3133 49.3188 42.4092 48.9092 42.4092C48.5588 42.4092 48.2487 42.3322 47.9788 42.1783C47.7113 42.0221 47.5006 41.7913 47.3467 41.4859C47.1952 41.1805 47.1194 40.8029 47.1194 40.353V36.8836H48.1812V40.2252C48.1812 40.5969 48.2842 40.8928 48.4902 41.113C48.6961 41.3332 48.9637 41.4432 49.2927 41.4432C49.4916 41.4432 49.6893 41.3935 49.8858 41.2941C50.0846 41.1947 50.2492 41.0443 50.3794 40.8431C50.5119 40.6419 50.5771 40.3862 50.5747 40.0761ZM53.2667 42.3381V36.8836H54.293V37.7501H54.3498C54.4492 37.4565 54.6244 37.2257 54.8754 37.0576C55.1287 36.8871 55.4151 36.8019 55.7347 36.8019C55.801 36.8019 55.8791 36.8043 55.9691 36.809C56.0614 36.8137 56.1336 36.8197 56.1857 36.8268V37.8424C56.1431 37.8306 56.0674 37.8175 55.9585 37.8033C55.8496 37.7868 55.7407 37.7785 55.6318 37.7785C55.3808 37.7785 55.1571 37.8317 54.9606 37.9383C54.7665 38.0424 54.6126 38.188 54.4989 38.3751C54.3853 38.5597 54.3285 38.7704 54.3285 39.0072V42.3381H53.2667ZM66.2768 37.4305H65.1688C65.1262 37.1937 65.0469 36.9854 64.9309 36.8055C64.8149 36.6255 64.6729 36.4728 64.5048 36.3474C64.3367 36.2219 64.1485 36.1272 63.9401 36.0633C63.7342 35.9994 63.5152 35.9674 63.2832 35.9674C62.8641 35.9674 62.4889 36.0727 62.1575 36.2834C61.8284 36.4941 61.568 36.8031 61.3762 37.2103C61.1868 37.6175 61.0921 38.1146 61.0921 38.7018C61.0921 39.2936 61.1868 39.7932 61.3762 40.2004C61.568 40.6075 61.8296 40.9153 62.161 41.1236C62.4925 41.332 62.8653 41.4361 63.2796 41.4361C63.5093 41.4361 63.7271 41.4054 63.933 41.3438C64.1414 41.2799 64.3296 41.1864 64.4977 41.0633C64.6658 40.9402 64.8078 40.7898 64.9238 40.6123C65.0422 40.4324 65.1238 40.2264 65.1688 39.9944L66.2768 39.9979C66.2176 40.3554 66.1028 40.6845 65.9323 40.9852C65.7642 41.2834 65.5476 41.5415 65.2825 41.7593C65.0197 41.9747 64.719 42.1416 64.3805 42.26C64.0419 42.3784 63.6726 42.4376 63.2725 42.4376C62.6428 42.4376 62.0817 42.2884 61.5893 41.9901C61.0969 41.6895 60.7086 41.2598 60.4245 40.7011C60.1428 40.1423 60.0019 39.4759 60.0019 38.7018C60.0019 37.9253 60.144 37.2588 60.4281 36.7025C60.7122 36.1438 61.1004 35.7153 61.5928 35.417C62.0853 35.1163 62.6452 34.966 63.2725 34.966C63.6584 34.966 64.0183 35.0216 64.3521 35.1329C64.6882 35.2418 64.9901 35.4028 65.2576 35.6158C65.5251 35.8265 65.7465 36.0846 65.9217 36.39C66.0969 36.693 66.2152 37.0398 66.2768 37.4305ZM71.1598 40.0761V36.8836H72.2252V42.3381H71.1811V41.3935H71.1243C70.9989 41.6847 70.7976 41.9274 70.5206 42.1215C70.246 42.3133 69.9039 42.4092 69.4944 42.4092C69.144 42.4092 68.8338 42.3322 68.564 42.1783C68.2964 42.0221 68.0857 41.7913 67.9319 41.4859C67.7803 41.1805 67.7046 40.8029 67.7046 40.353V36.8836H68.7664V40.2252C68.7664 40.5969 68.8694 40.8928 69.0753 41.113C69.2813 41.3332 69.5488 41.4432 69.8779 41.4432C70.0767 41.4432 70.2744 41.3935 70.4709 41.2941C70.6698 41.1947 70.8343 41.0443 70.9645 40.8431C71.0971 40.6419 71.1622 40.3862 71.1598 40.0761ZM77.9392 38.2153L76.9769 38.3857C76.9366 38.2626 76.8727 38.1454 76.7851 38.0342C76.6999 37.9229 76.5839 37.8317 76.4371 37.7607C76.2903 37.6897 76.1068 37.6542 75.8867 37.6542C75.586 37.6542 75.335 37.7217 75.1338 37.8566C74.9326 37.9892 74.832 38.1608 74.832 38.3715C74.832 38.5538 74.8994 38.7006 75.0344 38.8119C75.1693 38.9231 75.3871 39.0143 75.6878 39.0853L76.5543 39.2842C77.0562 39.4002 77.4302 39.5789 77.6764 39.8204C77.9226 40.0619 78.0457 40.3755 78.0457 40.7614C78.0457 41.0881 77.9511 41.3793 77.7617 41.635C77.5746 41.8883 77.313 42.0872 76.9769 42.2316C76.643 42.376 76.256 42.4482 75.8156 42.4482C75.2048 42.4482 74.7065 42.318 74.3206 42.0576C73.9347 41.7948 73.698 41.4219 73.6104 40.939L74.6367 40.7827C74.7006 41.0503 74.832 41.2527 75.0308 41.39C75.2297 41.5249 75.4889 41.5924 75.8085 41.5924C76.1565 41.5924 76.4347 41.5202 76.643 41.3758C76.8514 41.229 76.9555 41.0503 76.9555 40.8396C76.9555 40.6691 76.8916 40.5259 76.7638 40.4099C76.6383 40.2939 76.4454 40.2063 76.185 40.1471L75.2617 39.9447C74.7527 39.8287 74.3762 39.644 74.1324 39.3907C73.8909 39.1374 73.7702 38.8166 73.7702 38.4283C73.7702 38.1064 73.8601 37.8246 74.0401 37.5832C74.22 37.3417 74.4686 37.1535 74.7858 37.0185C75.103 36.8812 75.4664 36.8126 75.876 36.8126C76.4655 36.8126 76.9295 36.9404 77.268 37.1961C77.6066 37.4494 77.8303 37.7891 77.9392 38.2153ZM81.9593 36.8836V37.7359H78.9799V36.8836H81.9593ZM79.7789 35.5768H80.8407V40.7366C80.8407 40.9425 80.8715 41.0976 80.9331 41.2018C80.9946 41.3036 81.0739 41.3734 81.171 41.4113C81.2704 41.4468 81.3781 41.4646 81.4941 41.4646C81.5794 41.4646 81.6539 41.4586 81.7179 41.4468C81.7818 41.435 81.8315 41.4255 81.867 41.4184L82.0588 42.2955C81.9972 42.3192 81.9096 42.3429 81.796 42.3665C81.6824 42.3926 81.5403 42.4068 81.3699 42.4092C81.0905 42.4139 80.8301 42.3642 80.5886 42.26C80.3471 42.1558 80.1518 41.9949 80.0027 41.7771C79.8535 41.5593 79.7789 41.2858 79.7789 40.9567V35.5768ZM85.5729 42.4482C85.0615 42.4482 84.6152 42.331 84.2341 42.0967C83.8529 41.8623 83.557 41.5344 83.3463 41.113C83.1356 40.6916 83.0303 40.1992 83.0303 39.6357C83.0303 39.0699 83.1356 38.5751 83.3463 38.1513C83.557 37.7276 83.8529 37.3985 84.2341 37.1641C84.6152 36.9298 85.0615 36.8126 85.5729 36.8126C86.0842 36.8126 86.5305 36.9298 86.9117 37.1641C87.2928 37.3985 87.5887 37.7276 87.7994 38.1513C88.0101 38.5751 88.1155 39.0699 88.1155 39.6357C88.1155 40.1992 88.0101 40.6916 87.7994 41.113C87.5887 41.5344 87.2928 41.8623 86.9117 42.0967C86.5305 42.331 86.0842 42.4482 85.5729 42.4482ZM85.5764 41.5569C85.9079 41.5569 86.1825 41.4693 86.4003 41.2941C86.6181 41.1189 86.7791 40.8857 86.8832 40.5945C86.9898 40.3033 87.043 39.9825 87.043 39.6322C87.043 39.2842 86.9898 38.9646 86.8832 38.6734C86.7791 38.3798 86.6181 38.1442 86.4003 37.9667C86.1825 37.7891 85.9079 37.7004 85.5764 37.7004C85.2426 37.7004 84.9656 37.7891 84.7455 37.9667C84.5277 38.1442 84.3655 38.3798 84.259 38.6734C84.1548 38.9646 84.1027 39.2842 84.1027 39.6322C84.1027 39.9825 84.1548 40.3033 84.259 40.5945C84.3655 40.8857 84.5277 41.1189 84.7455 41.2941C84.9656 41.4693 85.2426 41.5569 85.5764 41.5569ZM89.5007 42.3381V36.8836H90.5199V37.7714H90.5873C90.701 37.4707 90.8868 37.2363 91.1449 37.0682C91.4029 36.8978 91.7119 36.8126 92.0717 36.8126C92.4363 36.8126 92.7417 36.8978 92.9879 37.0682C93.2365 37.2387 93.42 37.4731 93.5383 37.7714H93.5951C93.7254 37.4802 93.9325 37.2482 94.2166 37.0754C94.5007 36.9002 94.8392 36.8126 95.2322 36.8126C95.727 36.8126 96.1307 36.9676 96.4432 37.2778C96.758 37.5879 96.9155 38.0555 96.9155 38.6805V42.3381H95.8537V38.7799C95.8537 38.4106 95.753 38.1431 95.5518 37.9773C95.3506 37.8116 95.1103 37.7288 94.8309 37.7288C94.4853 37.7288 94.2166 37.8353 94.0248 38.0484C93.8331 38.2591 93.7372 38.5301 93.7372 38.8616V42.3381H92.6789V38.7124C92.6789 38.4165 92.5866 38.1786 92.402 37.9986C92.2173 37.8187 91.977 37.7288 91.6811 37.7288C91.4798 37.7288 91.294 37.782 91.1236 37.8886C90.9555 37.9927 90.8193 38.1383 90.7152 38.3254C90.6134 38.5124 90.5625 38.729 90.5625 38.9752V42.3381H89.5007ZM100.889 42.4482C100.352 42.4482 99.8892 42.3334 99.5009 42.1038C99.115 41.8718 98.8167 41.5462 98.606 41.1272C98.3977 40.7058 98.2935 40.2122 98.2935 39.6464C98.2935 39.0877 98.3977 38.5952 98.606 38.1691C98.8167 37.743 99.1103 37.4103 99.4867 37.1712C99.8655 36.9321 100.308 36.8126 100.815 36.8126C101.123 36.8126 101.421 36.8635 101.71 36.9653C101.999 37.0671 102.258 37.2269 102.487 37.4447C102.717 37.6625 102.898 37.9454 103.031 38.2934C103.163 38.639 103.23 39.0593 103.23 39.554V39.9305H98.8937V39.135H102.189C102.189 38.8557 102.132 38.6083 102.019 38.3928C101.905 38.175 101.745 38.0034 101.539 37.8779C101.336 37.7524 101.097 37.6897 100.822 37.6897C100.524 37.6897 100.263 37.7631 100.041 37.9099C99.8205 38.0543 99.6501 38.2437 99.5293 38.478C99.411 38.7101 99.3518 38.9622 99.3518 39.2344V39.8559C99.3518 40.2205 99.4157 40.5306 99.5435 40.7863C99.6737 41.042 99.8549 41.2373 100.087 41.3722C100.319 41.5048 100.59 41.5711 100.9 41.5711C101.101 41.5711 101.285 41.5427 101.451 41.4859C101.616 41.4267 101.759 41.3391 101.88 41.2231C102.001 41.1071 102.093 40.9638 102.157 40.7934L103.162 40.9745C103.082 41.2704 102.937 41.5297 102.729 41.7522C102.523 41.9724 102.264 42.144 101.951 42.2671C101.641 42.3879 101.287 42.4482 100.889 42.4482ZM104.608 42.3381V36.8836H105.634V37.7501H105.691C105.79 37.4565 105.965 37.2257 106.216 37.0576C106.47 36.8871 106.756 36.8019 107.076 36.8019C107.142 36.8019 107.22 36.8043 107.31 36.809C107.402 36.8137 107.475 36.8197 107.527 36.8268V37.8424C107.484 37.8306 107.408 37.8175 107.299 37.8033C107.191 37.7868 107.082 37.7785 106.973 37.7785C106.722 37.7785 106.498 37.8317 106.302 37.9383C106.107 38.0424 105.954 38.188 105.84 38.3751C105.726 38.5597 105.67 38.7704 105.67 39.0072V42.3381H104.608Z" fill="black"/>
</svg>
