<svg width="20" height="21" viewBox="0 0 20 21" fill="none" xmlns="http://www.w3.org/2000/svg">
<path d="M8.7767 2.2103C9.44863 1.52586 10.5514 1.52586 11.2233 2.2103L11.8153 2.81331C12.2076 3.21286 12.7702 3.39567 13.3224 3.30299L14.1558 3.16311C15.1017 3.00434 15.9938 3.65252 16.1351 4.60119L16.2596 5.43701C16.3421 5.99081 16.6898 6.46942 17.191 6.719L17.9475 7.09569C18.806 7.52323 19.1468 8.572 18.7035 9.42255L18.3129 10.1719C18.0542 10.6684 18.0542 11.26 18.3129 11.7565L18.7035 12.5059C19.1468 13.3565 18.806 14.4052 17.9475 14.8328L17.191 15.2095C16.6898 15.459 16.3421 15.9377 16.2596 16.4915L16.1351 17.3273C15.9938 18.2759 15.1017 18.9241 14.1558 18.7654L13.3224 18.6255C12.7702 18.5328 12.2076 18.7156 11.8153 19.1152L11.2233 19.7182C10.5514 20.4026 9.44863 20.4026 8.7767 19.7182L8.18469 19.1152C7.79245 18.7156 7.2298 18.5328 6.67762 18.6255L5.84424 18.7654C4.89833 18.9241 4.0062 18.2759 3.86489 17.3273L3.7404 16.4915C3.65791 15.9377 3.31018 15.459 2.80898 15.2095L2.05253 14.8328C1.19396 14.4052 0.853193 13.3565 1.29649 12.5059L1.68705 11.7565C1.94583 11.26 1.94583 10.6684 1.68705 10.1719L1.29649 9.42255C0.853193 8.572 1.19396 7.52323 2.05253 7.09569L2.80897 6.719C3.31017 6.46942 3.65791 5.99081 3.7404 5.43701L3.86489 4.60119C4.0062 3.65252 4.89833 3.00434 5.84424 3.16311L6.67762 3.30299C7.2298 3.39567 7.79245 3.21286 8.18469 2.81331L8.7767 2.2103Z" fill="#584051"/>
<path d="M13.8095 8.10657L8.57138 13.3447L6.19043 10.9637" stroke="white" stroke-width="1.14286" stroke-linecap="round" stroke-linejoin="round"/>
</svg>
