<svg width="23" height="17" viewBox="0 0 23 17" fill="none" xmlns="http://www.w3.org/2000/svg">
<g clip-path="url(#clip0_499_5362)">
<g clip-path="url(#clip1_499_5362)">
<g clip-path="url(#clip2_499_5362)">
<path d="M0.205353 16.79H4.72321C5.75102 16.79 6.98214 15.5954 6.98214 14.6567V0.790039H2.46428C1.43647 0.790039 0.205353 1.98471 0.205353 3.99004V16.79Z" fill="#047AB1"/>
<path d="M2.76924 11.6057C1.9019 11.6059 1.03884 11.491 0.205353 11.2644V10.091C0.852141 10.4688 1.59145 10.6819 2.35134 10.7097C3.22102 10.7097 3.70669 10.1337 3.70669 9.34438V6.12305H5.85267V9.34438C5.85267 10.603 5.15241 11.6057 2.76924 11.6057Z" fill="white"/>
<path d="M8.1116 16.79H12.6295C13.6573 16.79 14.8884 15.5954 14.8884 14.6567V0.790039H10.3705C9.34272 0.790039 8.1116 1.98471 8.1116 3.99004V16.79Z" fill="#D42D06"/>
<path d="M8.1116 6.87009C8.76669 6.27276 9.89616 5.89943 11.7259 5.98476C12.7198 6.02743 13.7589 6.30476 13.7589 6.30476V7.48876C13.1646 7.14928 12.4965 6.94141 11.805 6.88076C10.4157 6.76343 9.56861 7.49943 9.56861 8.79009C9.56861 10.0808 10.4157 10.8168 11.805 10.7101C12.497 10.644 13.1646 10.4326 13.7589 10.0914V11.2648C13.7589 11.2648 12.7198 11.5528 11.7259 11.5954C9.89616 11.6808 8.76669 11.3074 8.1116 10.7101V6.87009Z" fill="white"/>
<path d="M16.0179 16.79H20.5357C21.5635 16.79 22.7946 15.5954 22.7946 14.6567V0.790039H18.2768C17.249 0.790039 16.0179 1.98471 16.0179 3.99004V16.79Z" fill="#67B637"/>
<path d="M21.6652 10.0697C21.6652 10.923 20.9649 11.4564 20.0275 11.4564H16.0179V6.12305H19.666L19.9258 6.13371C20.7503 6.17638 21.3602 6.63505 21.3602 7.42438C21.3602 8.04305 20.9423 8.57638 20.1856 8.70438V8.73638C21.0214 8.78971 21.6652 9.29105 21.6652 10.0697ZM18.785 6.96571C18.7364 6.95885 18.6874 6.95528 18.6382 6.95505H17.2829V8.29905H18.785C19.0674 8.23505 19.3046 7.98971 19.3046 7.62705C19.3046 7.26438 19.0674 7.01905 18.785 6.96571ZM18.9545 9.14171C18.8947 9.13285 18.8342 9.12928 18.7737 9.13105H17.2829V10.5924H18.7737L18.9545 10.571C19.2368 10.507 19.474 10.2297 19.474 9.85638C19.474 9.48305 19.2481 9.21638 18.9545 9.14171Z" fill="white"/>
</g>
</g>
</g>
<defs>
<clipPath id="clip0_499_5362">
<rect width="23" height="16" fill="white" transform="translate(0 0.790039)"/>
</clipPath>
<clipPath id="clip1_499_5362">
<rect width="23" height="16" fill="white" transform="translate(0 0.790039)"/>
</clipPath>
<clipPath id="clip2_499_5362">
<rect width="23" height="16" fill="white" transform="translate(0 0.790039)"/>
</clipPath>
</defs>
</svg>
