<svg width="24" height="25" viewBox="0 0 24 25" fill="none" xmlns="http://www.w3.org/2000/svg">
<path d="M6 10.9642V8.96423C6 5.65423 7 2.96423 12 2.96423C17 2.96423 18 5.65423 18 8.96423V10.9642" stroke="#584051" stroke-width="1.5" stroke-linecap="round" stroke-linejoin="round"/>
<path d="M12 19.4642C13.3807 19.4642 14.5 18.3449 14.5 16.9642C14.5 15.5835 13.3807 14.4642 12 14.4642C10.6193 14.4642 9.5 15.5835 9.5 16.9642C9.5 18.3449 10.6193 19.4642 12 19.4642Z" stroke="#584051" stroke-width="1.5" stroke-linecap="round" stroke-linejoin="round"/>
<path d="M17 22.9642H7C3 22.9642 2 21.9642 2 17.9642V15.9642C2 11.9642 3 10.9642 7 10.9642H17C21 10.9642 22 11.9642 22 15.9642V17.9642C22 21.9642 21 22.9642 17 22.9642Z" stroke="#584051" stroke-width="1.5" stroke-linecap="round" stroke-linejoin="round"/>
</svg>
