<svg width="24" height="17" viewBox="0 0 24 17" fill="none" xmlns="http://www.w3.org/2000/svg">
<g clip-path="url(#clip0_499_5326)">
<g clip-path="url(#clip1_499_5326)">
<path d="M21.75 1.04004H2.25C1.14543 1.04004 0.25 1.93547 0.25 3.04004V14.54C0.25 15.6446 1.14543 16.54 2.25 16.54H21.75C22.8546 16.54 23.75 15.6446 23.75 14.54V3.04004C23.75 1.93547 22.8546 1.04004 21.75 1.04004Z" fill="white" stroke="black" stroke-opacity="0.2" stroke-width="0.5"/>
<path d="M2.78773 6.70448C2.26459 6.41754 1.66754 6.18678 1 6.02663L1.028 5.90192H3.76498C4.13596 5.91492 4.43699 6.02655 4.53495 6.42075L5.12977 9.25663L5.31198 10.1108L6.97797 5.90192H8.77679L6.10288 12.0676H4.30397L2.78773 6.70448ZM10.1 12.0741H8.39883L9.46285 5.90192H11.1639L10.1 12.0741ZM16.2668 6.05281L16.0354 7.38562L15.8816 7.32008C15.5737 7.19529 15.1674 7.07057 14.6144 7.08375C13.9427 7.08375 13.6415 7.35281 13.6345 7.6155C13.6345 7.90445 13.9989 8.09488 14.5939 8.37729C15.574 8.81723 16.0286 9.3556 16.0218 10.0582C16.0081 11.3387 14.846 12.1661 13.0611 12.1661C12.2979 12.1595 11.5628 12.0081 11.1638 11.8376L11.4019 10.4521L11.6259 10.5507C12.1789 10.7807 12.5428 10.879 13.222 10.879C13.7118 10.879 14.2369 10.6884 14.2436 10.2749C14.2436 10.0057 14.0199 9.80854 13.3617 9.5065C12.7178 9.21091 11.8568 8.71852 11.8708 7.83202C11.8781 6.63046 13.0611 5.79004 14.741 5.79004C15.399 5.79004 15.9312 5.92793 16.2668 6.05281ZM18.5278 9.88752H19.9417C19.8718 9.57893 19.5496 8.10151 19.5496 8.10151L19.4307 7.56968C19.3467 7.79947 19.1999 8.17377 19.2069 8.1606C19.2069 8.1606 18.6678 9.53294 18.5278 9.88752ZM20.6276 5.90192L22 12.074H20.4249C20.4249 12.074 20.2708 11.3649 20.2219 11.1482H18.0378C17.9746 11.3122 17.6808 12.074 17.6808 12.074H15.8958L18.4226 6.41403C18.5977 6.01345 18.906 5.90192 19.3118 5.90192H20.6276Z" fill="#1434CB"/>
</g>
</g>
<defs>
<clipPath id="clip0_499_5326">
<rect width="24" height="16" fill="white" transform="translate(0 0.790039)"/>
</clipPath>
<clipPath id="clip1_499_5326">
<rect width="24" height="16" fill="white" transform="translate(0 0.790039)"/>
</clipPath>
</defs>
</svg>
